<?xml version="1.0" standalone="no"?>
<!DOCTYPE svg PUBLIC "-//W3C//DTD SVG 20010904//EN"
 "http://www.w3.org/TR/2001/REC-SVG-20010904/DTD/svg10.dtd">
<svg version="1.0" xmlns="http://www.w3.org/2000/svg"
 width="168.000000pt" height="168.000000pt" viewBox="0 0 168.000000 168.000000"
 preserveAspectRatio="xMidYMid meet">
<metadata>
Created by potrace 1.11, written by Peter Selinger 2001-2013
</metadata>
<g transform="translate(0.000000,168.000000) scale(0.100000,-0.100000)"
fill="#000000" stroke="none">
<path d="M419 1643 c-45 -48 -87 -116 -135 -216 -29 -62 -38 -94 -42 -153 -4
-60 -8 -77 -23 -85 -15 -8 -19 -21 -19 -67 0 -65 14 -122 32 -134 7 -4 24 -8
38 -8 22 0 28 -7 38 -45 16 -59 15 -87 -4 -181 -12 -58 -28 -98 -61 -151 -25
-40 -49 -73 -54 -73 -5 0 -9 -4 -9 -10 0 -5 7 -10 15 -10 22 0 18 -13 -10 -40
-29 -27 -32 -40 -8 -40 12 0 5 -12 -25 -43 -23 -23 -42 -47 -42 -51 0 -9 106
-3 131 8 13 5 10 -7 -12 -50 -16 -31 -34 -63 -40 -71 -9 -10 -4 -13 30 -13 53
0 102 21 160 67 25 20 51 40 57 44 19 14 0 -63 -28 -116 -33 -63 -96 -121
-141 -129 -19 -4 -56 -18 -82 -31 -26 -15 -63 -25 -86 -25 -21 0 -39 -4 -39
-10 0 -7 277 -10 811 -10 537 0 808 3 804 10 -3 5 -12 10 -20 10 -7 0 -20 6
-27 13 -25 25 -132 47 -226 47 -94 0 -147 13 -178 45 -22 21 -10 45 21 45 14
0 44 9 67 21 25 13 49 18 64 15 14 -4 33 -2 44 4 12 7 21 7 25 0 10 -17 51
-11 69 9 14 16 22 18 35 9 11 -6 33 -8 55 -4 34 6 37 10 32 31 -4 14 -17 40
-29 59 -13 18 -32 71 -41 116 l-18 82 28 67 c37 84 41 205 9 258 -16 28 -18
39 -9 83 9 41 6 109 -6 165 -1 6 -2 29 -1 52 1 32 5 43 21 48 18 6 20 15 20
88 0 95 -15 127 -59 127 -24 0 -29 6 -44 56 -20 66 -74 151 -123 194 l-35 30
-447 0 -448 0 -35 -37z m706 -342 c-3 -5 -1 -12 5 -16 17 -10 11 -25 -10 -25
-15 0 -20 7 -20 25 0 16 6 25 16 25 8 0 13 -4 9 -9z m-132 -18 c4 -4 -6 -12
-23 -19 -27 -12 -30 -17 -30 -59 0 -25 -4 -45 -10 -45 -5 0 -10 22 -10 49 0
40 4 53 22 65 24 17 41 20 51 9z m90 -9 c-4 -11 -9 -12 -16 -5 -16 16 -27 13
-27 -6 0 -15 -2 -16 -10 -3 -16 25 -12 30 25 30 27 0 33 -3 28 -16z m102 -52
c3 -13 3 -27 0 -32 -3 -4 1 -11 7 -13 8 -3 6 -6 -4 -6 -14 -1 -18 7 -19 32 0
17 -3 27 -5 20 -3 -7 -12 -9 -20 -6 -7 3 -11 10 -8 17 3 6 -1 3 -9 -7 -12 -15
-16 -15 -20 -3 -7 17 8 24 45 22 19 -1 29 -8 33 -24z m-190 8 c3 -5 1 -10 -6
-10 -7 0 -10 -11 -7 -30 3 -20 0 -30 -9 -30 -14 0 -19 61 -6 73 9 10 21 9 28
-3z m65 -6 c0 -8 -4 -12 -10 -9 -5 3 -10 2 -10 -3 0 -6 8 -13 17 -16 15 -6 15
-8 3 -16 -11 -7 -17 -4 -22 8 -12 29 -9 52 7 52 8 0 15 -7 15 -16z m30 1 c0
-8 -4 -15 -10 -15 -5 0 -10 7 -10 15 0 8 5 15 10 15 6 0 10 -7 10 -15z m-73
-51 c-9 -9 -28 6 -21 18 4 6 10 6 17 -1 6 -6 8 -13 4 -17z m134 12 c5 3 9 0 9
-5 0 -6 -7 -11 -15 -11 -8 0 -15 8 -14 18 0 10 3 12 6 4 2 -6 9 -10 14 -6z
m-41 -11 c-7 -8 -16 -15 -21 -15 -5 0 -9 7 -9 15 0 9 9 15 21 15 18 0 19 -2 9
-15z m419 -48 c28 -46 43 -151 31 -217 -8 -45 -7 -58 6 -79 25 -37 31 -152 10
-195 -9 -19 -16 -37 -16 -40 0 -3 -22 -43 -49 -88 -27 -46 -52 -102 -56 -125
-4 -28 -18 -55 -42 -80 -19 -21 -38 -43 -41 -50 -4 -6 -33 -25 -66 -42 -48
-26 -70 -31 -125 -31 -112 0 -176 28 -282 124 -31 28 -84 75 -117 104 -67 58
-126 137 -124 166 0 10 -6 32 -14 49 -11 20 -15 47 -12 83 4 55 -5 73 -16 32
-10 -39 -6 -92 9 -118 8 -14 14 -35 15 -47 0 -33 50 -101 123 -168 233 -214
252 -226 361 -234 52 -5 72 -10 74 -21 2 -11 -19 -21 -76 -38 -64 -18 -103
-22 -213 -22 -130 1 -316 14 -326 23 -9 10 22 47 49 58 26 10 39 29 21 29 -17
0 -72 -40 -83 -59 -14 -27 -26 -26 -99 5 l-60 26 24 47 c14 25 25 60 25 78 0
21 10 44 28 65 15 18 43 56 62 83 l35 50 6 200 c4 110 11 218 18 240 6 22 11
56 11 76 l0 37 78 10 c42 5 102 10 132 11 30 1 89 6 130 11 41 5 134 14 205
20 72 6 167 20 212 30 45 11 89 17 97 14 9 -3 16 -1 16 5 0 21 19 11 39 -22z"/>
<path d="M1286 1092 c-2 -4 23 -6 58 -4 56 4 65 1 94 -23 39 -33 43 -24 5 10
-23 20 -39 24 -90 25 -34 0 -64 -4 -67 -8z"/>
<path d="M793 1036 c-18 -8 -33 -22 -33 -29 0 -12 23 -16 109 -19 70 -2 114
-8 124 -16 25 -21 62 -11 65 18 4 38 -27 50 -136 56 -73 3 -105 1 -129 -10z"/>
<path d="M1060 1047 c0 -5 9 -20 20 -34 11 -14 20 -21 20 -15 0 12 -39 60 -40
49z"/>
<path d="M1291 997 c-1 -47 17 -56 68 -33 32 15 46 16 100 6 68 -12 91 -4 91
30 0 27 -147 38 -207 16 -38 -13 -42 -13 -46 2 -3 9 -5 0 -6 -21z"/>
<path d="M838 935 c-10 -22 -8 -29 12 -50 23 -24 29 -26 110 -23 83 3 85 4 85
28 0 37 -64 70 -138 70 -52 0 -59 -2 -69 -25z m68 -22 c-2 -21 -5 -38 -7 -37
-15 3 -49 31 -49 39 0 17 22 35 42 35 14 0 16 -7 14 -37z m132 -21 c2 -7 -3
-12 -12 -12 -9 0 -16 7 -16 16 0 17 22 14 28 -4z"/>
<path d="M1376 929 c-49 -12 -66 -25 -66 -54 0 -19 7 -23 48 -29 26 -3 62 -8
80 -12 l32 -6 0 46 c0 35 -5 48 -19 56 -22 11 -22 11 -75 -1z m4 -44 c0 -26
-7 -29 -34 -19 -19 7 -21 30 -3 37 26 11 37 6 37 -18z"/>
<path d="M1260 775 c0 -34 21 -73 59 -109 l31 -30 -20 -33 c-11 -19 -20 -40
-20 -47 0 -9 -9 -12 -27 -9 l-28 4 25 -15 c14 -8 28 -12 32 -10 11 7 48 94 48
112 0 8 -18 34 -40 58 -24 26 -40 53 -40 68 0 14 -4 28 -10 31 -6 4 -10 -5
-10 -20z"/>
<path d="M1070 631 c-31 -9 -37 -34 -16 -66 11 -17 25 -25 44 -24 l27 1 -27 9
c-44 17 -50 69 -7 69 10 0 19 5 19 10 0 11 -4 11 -40 1z"/>
<path d="M1160 560 c0 -5 9 -10 19 -10 11 0 23 5 26 10 4 6 -5 10 -19 10 -14
0 -26 -4 -26 -10z"/>
<path d="M657 418 c3 -40 1 -74 -6 -89 -11 -23 -11 -23 3 -5 18 22 22 121 7
145 -5 8 -7 -12 -4 -51z"/>
<path d="M1006 421 c-5 -7 3 -11 19 -11 14 0 45 -4 68 -10 23 -5 88 -11 145
-12 147 -4 124 15 -29 24 -68 4 -140 10 -160 13 -23 4 -39 3 -43 -4z"/>
<path d="M1184 263 c-12 -24 -17 -43 -13 -43 12 0 41 59 37 74 -2 6 -12 -7
-24 -31z"/>
<path d="M1040 133 c0 -4 5 -15 10 -23 8 -13 10 -13 10 2 0 9 -4 20 -10 23 -5
3 -10 3 -10 -2z"/>
</g>
</svg>
